<svg xmlns="http://www.w3.org/2000/svg" enable-background="new 0 0 512 512" version="1" viewBox="0 0 512 512"><path fill="#FF7C00" d="M93.867,12.801h324.267c51.733,0,93.867,42.133,93.867,93.867v311.467
			c0,51.733-42.133,93.867-93.867,93.867H93.867c-51.733,0-93.867-42.133-93.867-93.867V106.668
			C0.001,54.934,42.134,12.801,93.867,12.801"/><path fill="#261300" d="M98.133,34.134h315.733c42.667,0,76.8,34.133,76.8,76.8v302.933c0,42.667-34.133,76.8-76.8,76.8H98.133
			c-42.667,0-76.8-34.133-76.8-76.8V110.934C21.333,68.268,55.466,34.134,98.133,34.134"/><path fill="#FFF" d="M237.855,152.268c-0.829-1.659-0.829-1.659-2.488-1.659h-43.127c-0.829,0-1.659,0-1.659,1.659
			c0.235,5.854-0.323,11.712-1.659,17.417l-58.884,206.51c-0.829,2.488,0,3.317,1.659,3.317h30.686c2.488,0,3.317-0.829,3.317-2.488
			l16.587-62.202h65.519l17.416,62.202c0.829,1.659,1.659,1.659,3.317,1.659h34.004c1.659,0,1.659-0.829,1.659-2.488
			L237.855,152.268z M191.411,281.647c8.501-32.345,19.905-73.813,24.051-97.864c4.976,24.881,19.075,74.642,24.881,97.864H191.411z
			 M333.231,166.367c-0.002-11.909,9.651-21.565,21.56-21.567c11.909-0.002,21.565,9.651,21.567,21.56c0,0.002,0,0.005,0,0.007
			c0.895,11.014-7.308,20.668-18.322,21.563c-1.079,0.088-2.163,0.088-3.242,0C342.354,187.101,333.231,179.636,333.231,166.367z
			 M335.719,213.64c-0.186-1.188,0.626-2.302,1.813-2.488c0.224-0.035,0.451-0.035,0.675,0h32.345
			c1.188-0.186,2.302,0.626,2.488,1.813c0.035,0.224,0.035,0.451,0,0.675v163.383c0,1.659,0,2.488-2.488,2.488h-32.345
			c-1.188,0.186-2.302-0.626-2.488-1.813c-0.035-0.224-0.035-0.451,0-0.675V213.64z"/><path fill="#FF7C00" d="M237.855,152.268c-0.829-1.659-0.829-1.659-2.488-1.659h-43.127c-0.829,0-1.659,0-1.659,1.659
				c0.235,5.854-0.323,11.712-1.659,17.417l-58.884,206.51c-0.829,2.488,0,3.317,1.659,3.317h30.686
				c2.488,0,3.317-0.829,3.317-2.488l16.587-62.202h65.519l17.416,62.202c0.829,1.659,1.659,1.659,3.317,1.659h34.004
				c1.659,0,1.659-0.829,1.659-2.488L237.855,152.268z M191.411,281.647c8.501-32.345,19.905-73.813,24.051-97.864
				c4.976,24.881,19.075,74.642,24.881,97.864H191.411z M333.231,166.367c-0.002-11.909,9.651-21.565,21.56-21.567
				c11.909-0.002,21.565,9.651,21.567,21.56c0,0.002,0,0.005,0,0.007c0.895,11.014-7.308,20.668-18.322,21.563
				c-1.079,0.088-2.163,0.088-3.242,0C342.354,187.101,333.231,179.636,333.231,166.367z M335.719,213.64
				c-0.186-1.188,0.626-2.302,1.813-2.488c0.224-0.035,0.451-0.035,0.675,0h32.345c1.188-0.186,2.302,0.626,2.488,1.813
				c0.035,0.224,0.035,0.451,0,0.675v163.383c0,1.659,0,2.488-2.488,2.488h-32.345c-1.188,0.186-2.302-0.626-2.488-1.813
				c-0.035-0.224-0.035-0.451,0-0.675V213.64z" opacity=".15"/></svg>