<svg xmlns="http://www.w3.org/2000/svg" width="256" height="256" data-name="Layer 1" viewBox="0 0 256 256"><g data-name="Photo Surface"><rect width="240" height="232" x="8" y="12" fill="#49021f" data-name="Outline no shadow" rx="42"/></g><path fill="#f36" d="M96 78V182.5c0 1-.45 1.5-1.34 1.5H77.34c-.9 0-1.34-.5-1.34-1.5V78a1.18 1.18 0 011.34-1.34H94.83C95.61 76.66 96 77.11 96 78zM147.84 186c-11.61 0-20.54-3.29-27.48-9.86S109.94 159.86 109.94 147q0-17.53 11.19-28.8A40.07 40.07 0 01150.64 106a29.62 29.62 0 017.3.78V72.94a.83.83 0 01.93-.94h18.29c.52 0 .78.31.78.94v94.75c0 4 1.73 7.41 2 10.33a1.26 1.26 0 01-.78 1.41C170.18 183.81 158.41 186 147.84 186zm10.1-15.49V122.14c-.65-1.14-4.09-2.14-7.61-2.14a19.61 19.61 0 00-15.4 6.85 29.24 29.24 0 00-7 19.4c0 8.76 3 14.76 6.92 18.93A19.88 19.88 0 00149.7 172C153.44 172 157.09 171.44 157.94 170.51z"/></svg>