<svg xmlns="http://www.w3.org/2000/svg" width="256" height="256" data-name="Layer 1" viewBox="0 0 256 256"><g data-name="Photo Surface"><rect width="240" height="232" x="8" y="12" fill="#00005b" data-name="Outline no shadow" rx="42"/></g><path fill="#99f" d="M108.79 156H73l-9.24 26.68Q63.6 184 62.09 184H45.29q-1.68 0-1.17-1.65L76.54 86.06A29.5 29.5 0 0077.88 77a.89.89 0 011-1H102.4c.68 0 1.07.28 1.18.82l36.28 105.7c.34 1 .06 1.48-.84 1.48H120.21a1.74 1.74 0 01-1.68-1zM77 138h27.88c-.67-1.47-13.21-41.93-14.11-45.34h-.16zM193.54 148.49H163.91q.17 10.39 5.83 16.4t17 6a45.34 45.34 0 0018.46-3.57c.65-.43 1-.22 1 .65v11.85a2.45 2.45 0 01-1 1.95Q196 186 182.53 186q-19.9 0-29.22-11.45T144 145.89Q144 128 153.71 116t26.56-12q16 0 23.88 9.9A36.33 36.33 0 01212 137.12a47 47 0 01-.65 9.42 1.4 1.4 0 01-1.29 1.3Q205.85 148.49 193.54 148.49zM163.91 136h21.38q7 0 7.93-.33a10.64 10.64 0 00.16-2.27 19.49 19.49 0 00-3.24-11q-3.24-4.87-10.52-4.87-7.12 0-11 5.19A26.18 26.18 0 00163.91 136z"/></svg>