<svg xmlns="http://www.w3.org/2000/svg" enable-background="new 0 0 512 512" version="1" viewBox="0 0 512 512"><path fill="#3CF2A6" d="M93.867,12.801h324.267c51.733,0,93.867,42.133,93.867,93.867v311.467
			c0,51.733-42.133,93.867-93.867,93.867H93.867c-51.733,0-93.867-42.133-93.867-93.867V106.668
			C0.001,54.934,42.134,12.801,93.867,12.801"/><path fill="#00261A" d="M98.133,34.134h315.733c42.667,0,76.8,34.133,76.8,76.8v302.933c0,42.667-34.133,76.8-76.8,76.8H98.133
			c-42.667,0-76.8-34.133-76.8-76.8V110.934C21.333,68.268,55.466,34.134,98.133,34.134"/><path fill="#FFF" d="M92.712,148.747c0-1.679,0.42-2.519,2.519-2.728c7.976-0.42,31.063-1.049,54.779-1.049
			c70.73,0,105.991,45.754,105.991,112.707c0,93.188-61.076,121.312-108.089,121.312c-17.84,0-43.655-0.42-53.1-0.63
			c-1.469,0-2.099-1.049-2.099-2.728V148.747z M131.12,344.777c5.877,0.42,10.704,0.63,17.42,0.63
			c39.038,0,68.002-27.495,68.422-86.891c0.42-57.927-29.593-80.175-66.952-80.175c-7.346,0-12.803,0.42-18.889,0.63V344.777z
			 M290.001,241.515V375.84c0,1.889,0.84,2.519,2.519,2.519h33.791c1.469,0,2.099-1.049,2.099-2.519V241.095
			c6.296-2.099,14.272-3.778,23.297-3.778c20.778,0,29.174,11.334,29.174,31.482v106.83c0,1.679,0.63,2.728,2.728,2.728h33.161
			c1.889,0,2.519-0.63,2.519-2.728V266.071c0-51.001-33.161-62.545-62.755-62.545c-24.136,0-48.063,7.136-65.903,13.852
			c-1.259,0.84-1.679,1.049-1.679,2.519C290.001,232.071,290.001,239.416,290.001,241.515L290.001,241.515z"/><path fill="#3CF2A6" d="M92.712,148.747c0-1.679,0.42-2.519,2.519-2.728c7.976-0.42,31.063-1.049,54.779-1.049
				c70.73,0,105.991,45.754,105.991,112.707c0,93.188-61.076,121.312-108.089,121.312c-17.84,0-43.655-0.42-53.1-0.63
				c-1.469,0-2.099-1.049-2.099-2.728V148.747z M131.12,344.777c5.877,0.42,10.704,0.63,17.42,0.63
				c39.038,0,68.002-27.495,68.422-86.891c0.42-57.927-29.593-80.175-66.952-80.175c-7.346,0-12.803,0.42-18.889,0.63V344.777z
				 M290.001,241.515V375.84c0,1.889,0.84,2.519,2.519,2.519h33.791c1.469,0,2.099-1.049,2.099-2.519V241.095
				c6.296-2.099,14.272-3.778,23.297-3.778c20.778,0,29.174,11.334,29.174,31.482v106.83c0,1.679,0.63,2.728,2.728,2.728h33.161
				c1.889,0,2.519-0.63,2.519-2.728V266.071c0-51.001-33.161-62.545-62.755-62.545c-24.136,0-48.063,7.136-65.903,13.852
				c-1.259,0.84-1.679,1.049-1.679,2.519C290.001,232.071,290.001,239.416,290.001,241.515L290.001,241.515z" opacity=".15"/></svg>