<svg xmlns="http://www.w3.org/2000/svg" enable-background="new 0 0 512 512" version="1" viewBox="0 0 512 512"><path fill="#FF5FF8" d="M93.867,12.801h324.267c51.733,0,93.867,42.133,93.867,93.867v311.467
			c0,51.733-42.133,93.867-93.867,93.867H93.867c-51.733,0-93.867-42.133-93.867-93.867V106.668
			C0.001,54.934,42.134,12.801,93.867,12.801"/><path fill="#2B0028" d="M98.133,34.134h315.733c42.667,0,76.8,34.133,76.8,76.8v302.933c0,42.667-34.133,76.8-76.8,76.8H98.133
			c-42.667,0-76.8-34.133-76.8-76.8V110.934C21.333,68.268,55.466,34.134,98.133,34.134"/><path fill="#FFF" d="M197.459,375.701c0,2.094-0.419,2.723-2.723,2.723h-32.255c-2.094,0-2.723-1.047-2.723-2.723V150.754
			c0-2.094,1.047-2.723,2.723-2.723h32.464c1.676,0,2.513,0.628,2.513,2.513V375.701z M352.032,374.025
			c0,1.466-0.419,2.094-1.676,2.723c-9.006,3.351-19.898,4.398-31.417,4.398c-49.011,0-77.705-36.234-77.705-87.759
			c0-50.477,32.464-88.387,82.313-88.387c13.405,0,21.783,1.047,27.019,3.142c1.466,1.047,1.676,1.676,1.676,3.561l-0.419,28.694
			c0,1.676-1.047,2.094-2.513,1.676c-5.865-2.513-13.405-3.77-23.877-3.77c-27.228,0-45.869,19.06-45.869,53.619
			c0,40.842,23.458,54.875,46.707,54.875c10.054,0,18.222-1.047,23.458-3.142c1.676-0.419,2.513,0.419,2.513,1.676L352.032,374.025
			L352.032,374.025z"/><path fill="#FF5FF8" d="M197.459,375.701c0,2.094-0.419,2.723-2.723,2.723h-32.255c-2.094,0-2.723-1.047-2.723-2.723V150.754
				c0-2.094,1.047-2.723,2.723-2.723h32.464c1.676,0,2.513,0.628,2.513,2.513V375.701z M352.032,374.025
				c0,1.466-0.419,2.094-1.676,2.723c-9.006,3.351-19.898,4.398-31.417,4.398c-49.011,0-77.705-36.234-77.705-87.759
				c0-50.477,32.464-88.387,82.313-88.387c13.405,0,21.783,1.047,27.019,3.142c1.466,1.047,1.676,1.676,1.676,3.561l-0.419,28.694
				c0,1.676-1.047,2.094-2.513,1.676c-5.865-2.513-13.405-3.77-23.877-3.77c-27.228,0-45.869,19.06-45.869,53.619
				c0,40.842,23.458,54.875,46.707,54.875c10.054,0,18.222-1.047,23.458-3.142c1.676-0.419,2.513,0.419,2.513,1.676L352.032,374.025
				L352.032,374.025z" opacity=".15"/></svg>